<?xml version="1.0" encoding="utf-8"?>
<!-- Generator: Adobe Illustrator 18.1.1, SVG Export Plug-In . SVG Version: 6.00 Build 0)  -->
<svg version="1.1" xmlns="http://www.w3.org/2000/svg" xmlns:xlink="http://www.w3.org/1999/xlink" x="0px" y="0px"
	 viewBox="-203 404.9 187.8 33" enable-background="new -203 404.9 187.8 33" xml:space="preserve">
<g id="Layer_1">
</g>
<g id="レイヤー_2">
	<g>
		<path d="M-128.7,418.9c0,0-3.1-1.7-4-2.7c-0.8-0.9-1.2-1.4-1.2-2.5c0-1.1,0.3-1.8,1.1-2.8c0.7-0.8,1.8-1.3,3-1.3
			c0.9,0,2,0.3,2.6,0.7c0.7,0.4,1.4,0.8,1.7,1.1c0.2,0.2,0.6,0.6,0.7,0.6c0.1,0.2,0.1,0.2,0,0.4l0.2,0.1l2.9-3.5l-0.2-0.1
			c0,0-0.1,0.2-0.4,0c-0.1,0-0.2-0.2-0.3-0.2c-0.2-0.2-0.5-0.5-0.5-0.5c-1.1-1-2.2-1.8-3.2-2.2c-2.1-0.9-4.6-0.9-6.8-0.1
			c-1.1,0.4-2,1-2.8,1.8c-0.8,0.8-1.5,1.8-1.9,2.9c-0.5,1.1-0.6,2-0.6,3.2c0,1.7,0.8,3.4,2.2,4.9c1.3,1.4,3,2.6,4.3,3.4
			c1.2,0.7,2.9,1.6,4.2,2.7c1,0.9,1.6,2.2,1.4,3.6c-0.1,1.2-0.5,1.9-1.4,2.9c-0.8,0.9-2,1.4-3.3,1.4c-1.1,0-2.3-0.5-3-1.1
			c-1.1-0.9-1.8-1.8-2.1-2.2c-0.2-0.3,0-0.5,0-0.5l-0.2-0.1l-3.1,3.7l0.2,0.1c0,0,0.2-0.2,0.4,0c0.1,0.1,0.3,0.4,0.3,0.4
			c1,1.4,2,2.3,3.2,3c1.3,0.7,2.7,1.1,4.2,1.1c1.4,0,2.8-0.2,3.9-0.7c1.5-0.7,2.5-1.5,3.1-2.2c0.7-0.8,1.3-1.6,1.8-2.8
			c0.4-1,0.7-2,0.7-3.2c0-1.9-0.7-3.8-2-5.4C-124.7,421.6-126.2,420.4-128.7,418.9"/>
		<path d="M-15.8,436.5l-0.2-0.2l-1.2-1.5h0l-10.1-13.8c0,0,5.1-7.7,8-12c0,0,1.9-2.6,2-2.7c0.1-0.1,0.2-0.2,0.2-0.3
			c0.1-0.1,0.2-0.1,0.3-0.2l0-0.2H-23v0.2c0,0,0.1,0,0.1,0c0.2,0,0.2,0.1,0.2,0.2c0,0.1-0.1,0.1-0.1,0.1l-7.2,10.9l-8-10.9
			c0,0,0-0.1-0.1-0.1c-0.1-0.1,0-0.2,0.2-0.2c0.1,0,0.1,0,0.1,0l0-0.2h-6.2v0.2c0.1,0,0.3,0.1,0.3,0.1c0.1,0.1,0.2,0.2,0.2,0.3
			c0.1,0.1,10.8,14.9,10.8,14.9l-10,15.1l-0.2,0.2c-0.2,0.2-0.5,0.3-0.5,0.3v0.2h6v-0.2c-0.1,0-0.2-0.1-0.2-0.1
			c-0.1-0.1,0-0.2,0.2-0.5c0.1-0.1,7.4-11.1,7.4-11.1l7.1,9.8c0,0,0.8,1,1,1.3c0.2,0.3,0.2,0.5,0.1,0.6c0,0-0.1,0.1-0.2,0.1v0.2
			l6.5,0v-0.2C-15.4,436.7-15.6,436.7-15.8,436.5"/>
		<g>
			<path d="M-79.2,406.1c0-0.2,0.2-0.3,0.3-0.3v-0.2l-0.3,0h-4.4l-0.3,0v0.2c0.1,0,0.3,0.1,0.3,0.3v30.4c0,0.2-0.2,0.3-0.3,0.3v0.2
				l0.3,0v0h4.5v0l0.3,0v-0.2c-0.1,0-0.3-0.1-0.3-0.3v-30.2V406.1z"/>
		</g>
		<g>
			<path fill="#A9894A" d="M-185.9,419.5c-0.4,0-0.4-0.2-0.4-0.3l-0.2,0l0,4.9h0.2c0-0.1,0.1-0.3,0.3-0.3h6.2v7.2
				c-0.8,0.6-1.8,1.1-3,1.4c-2.9,0.9-5.9,0.8-8.4-0.3c-1.4-0.6-2.6-1.4-3.7-2.5c-1-1.1-1.9-2.3-2.4-3.7c-0.6-1.4-0.9-2.9-0.9-4.5
				c0-1.6,0.3-3.1,0.9-4.5c0.6-1.4,1.4-2.7,2.4-3.7c1-1.1,2.3-1.9,3.7-2.5c2.5-1.1,5.5-1.2,8.5-0.2c1.3,0.5,2.4,1.1,3.2,1.8
				c0,0,0.2,0.2,0.2,0.2c0.2,0.2,0.2,0.3,0.2,0.5c0,0.1,0,0.1,0,0.1l0.1,0.1l3.3-3.8l-0.1-0.1c0,0,0,0.1-0.2,0.1
				c-0.1,0-0.3-0.1-0.3-0.1c-3.2-2.5-6.7-3.8-10.3-3.8c-2.3,0-4.6,0.4-6.6,1.3c-2,0.9-3.7,2.1-5.2,3.6c-1.4,1.5-2.5,3.2-3.3,5.1
				c-0.8,1.9-1.2,3.9-1.2,6c0,2.1,0.4,4.1,1.2,6c0.8,1.9,1.9,3.6,3.3,5.1c1.4,1.5,3.2,2.7,5.2,3.6c2,0.9,4.2,1.3,6.6,1.3
				c4,0,7.7-1.4,11-4.2l0.1-0.1c0.1-0.1,0.2,0.4,0.2-0.4v-12.9c0-0.3,0.3-0.3,0-0.3H-185.9z"/>
		</g>
	</g>
</g>
</svg>
